<?xml version="1.0" encoding="UTF-8"?> <svg xmlns="http://www.w3.org/2000/svg" width="165" height="105" viewBox="0 0 165 105" fill="none"> <path d="M104.877 35.9373V0.986328" stroke="white" stroke-width="3.03922"></path> <path d="M0.0234375 2.50586H106.396" stroke="white" stroke-width="3.03922"></path> <path d="M1.54297 0.986328V102.8" stroke="white" stroke-width="3.03922"></path> <path d="M34.9744 102.8H0.0234375" stroke="white" stroke-width="3.03922"></path> <path d="M33.4365 47.17C33.9296 47.1477 34.4208 47.2449 34.8682 47.4534C35.3157 47.6619 35.706 47.9755 36.0061 48.3674C36.6701 49.3263 36.9952 50.4792 36.93 51.6437V62.5302H35.6597V51.8185C35.723 50.8895 35.5071 49.9629 35.0397 49.1576C34.8453 48.8689 34.5799 48.6349 34.2691 48.4782C33.9583 48.3215 33.6125 48.2472 33.2648 48.2626C31.8019 48.2626 30.4737 49.3501 29.2803 51.5252V62.5302H27.9841V51.8185C28.0461 50.8891 27.8285 49.9624 27.3596 49.1576C27.1645 48.8695 26.8987 48.6363 26.5876 48.4804C26.2766 48.3245 25.9307 48.251 25.5831 48.2671C24.1203 48.2671 22.8033 49.3547 21.6322 51.5297V62.5302H20.3283V47.4587H21.4498L21.5653 50.0861C22.0403 49.2511 22.6804 48.5215 23.4466 47.9419C24.1207 47.4348 24.9417 47.1612 25.7852 47.1624C26.597 47.1348 27.3869 47.4279 27.9841 47.9784C28.5985 48.5874 29.003 49.3762 29.139 50.2305C29.6265 49.368 30.2768 48.6083 31.0537 47.9936C31.7329 47.4593 32.5723 47.1691 33.4365 47.17V47.17ZM50.5579 59.5563C50.5272 60.0983 50.6159 60.6404 50.8177 61.1443C51.002 61.5009 51.3099 61.7781 51.6839 61.9239L51.3952 62.8478C50.8469 62.7352 50.353 62.44 49.9941 62.0105C49.6378 61.4913 49.4423 60.8788 49.4319 60.2493C49.0444 61.0409 48.4395 61.7058 47.6878 62.166C46.9361 62.6262 46.0688 62.8627 45.1876 62.8478C44.6147 62.8778 44.0421 62.7838 43.5089 62.5721C42.9757 62.3605 42.4945 62.0362 42.0982 61.6215C41.3152 60.7144 40.9119 59.5404 40.9722 58.3437C40.9343 57.6726 41.0517 57.0018 41.3153 56.3835C41.5788 55.7652 41.9814 55.216 42.4918 54.7787C43.7004 53.8787 45.1878 53.4342 46.692 53.5235H49.2586V51.7911C49.3347 50.8514 49.074 49.9152 48.5231 49.15C48.2073 48.8412 47.8279 48.605 47.4114 48.4577C46.9949 48.3105 46.5513 48.2558 46.1115 48.2975C44.8162 48.3415 43.5417 48.6356 42.3581 49.1637L41.9827 48.1532C43.3163 47.5491 44.7561 47.2149 46.2194 47.17C49.1067 47.17 50.5503 48.681 50.5503 51.703L50.5579 59.5563ZM45.332 61.7506C46.2044 61.7335 47.0502 61.4468 47.7533 60.9298C48.4563 60.4129 48.9821 59.691 49.2586 58.8634V54.5325H46.8273C43.8438 54.5325 42.352 55.7933 42.352 58.3148C42.293 59.2309 42.5762 60.1364 43.1468 60.8556C43.4223 61.1569 43.7611 61.3934 44.139 61.5482C44.5168 61.7029 44.9242 61.7721 45.332 61.7506V61.7506ZM62.0233 61.9223C61.2174 62.5311 60.2326 62.8559 59.2227 62.8463C58.7806 62.8709 58.3383 62.8012 57.9252 62.6419C57.512 62.4826 57.1374 62.2374 56.8263 61.9223C56.2084 61.1916 55.8979 60.2498 55.9601 59.2949V48.5498H53.7339V47.4587H55.9571V43.7919L57.2563 43.6399V47.4587H60.8365L60.6557 48.5498H57.2563V59.2326C57.2563 60.8687 57.9493 61.6868 59.3351 61.6868C60.0967 61.6777 60.8391 61.4469 61.4717 61.0227L62.0233 61.9223ZM70.5119 47.1685C71.0317 47.1385 71.5513 47.2298 72.0297 47.4353C72.5082 47.6407 72.9322 47.9547 73.2684 48.3522C73.9638 49.3035 74.3055 50.4675 74.2349 51.6437V62.5302H72.9341V51.8185C72.9341 49.4509 72.0583 48.2671 70.3067 48.2671C69.4268 48.2654 68.5741 48.5719 67.8966 49.1333C67.0833 49.8215 66.4033 50.6534 65.8907 51.5875V62.5302H64.5915V41.3089L65.8907 41.1356V50.1439C66.4224 49.2869 67.1131 48.5395 67.9255 47.9419C68.6842 47.4198 69.588 47.1498 70.5088 47.17L70.5119 47.1685ZM89.0724 54.3881C89.0724 54.7934 89.0531 55.1879 89.0146 55.5719H79.8027C79.7394 57.2171 80.1886 58.8415 81.0883 60.2204C81.4517 60.6943 81.9226 61.075 82.4622 61.331C83.0017 61.5871 83.5944 61.7111 84.1914 61.6929C84.8484 61.7068 85.5015 61.589 86.1122 61.3464C86.7465 61.0601 87.3345 60.6806 87.8567 60.2204L88.5207 61.0288C87.9207 61.5894 87.2328 62.0478 86.4845 62.3858C85.7502 62.698 84.9588 62.8532 84.161 62.8417C83.3527 62.8725 82.5491 62.7059 81.8197 62.3564C81.0902 62.0069 80.4569 61.485 79.9745 60.8358C78.8524 59.144 78.315 57.1314 78.4442 55.1054C78.3252 53.0533 78.8341 51.0136 79.903 49.2579C80.3303 48.5987 80.9196 48.0601 81.6146 47.6937C82.3095 47.3273 83.0869 47.1454 83.8723 47.1654C84.6247 47.1256 85.3748 47.2783 86.0518 47.6091C86.7288 47.9398 87.3102 48.4378 87.7412 49.0558C88.7194 50.6554 89.184 52.5164 89.0724 54.3881V54.3881ZM87.7731 53.955C87.8597 52.4966 87.5298 51.0435 86.8218 49.7655C86.51 49.2837 86.0755 48.8937 85.563 48.6354C85.0505 48.3772 84.4784 48.26 83.9057 48.296C83.3375 48.286 82.7757 48.418 82.2715 48.6802C81.7673 48.9424 81.3365 49.3264 81.0184 49.7974C80.1661 51.2259 79.744 52.87 79.8027 54.5325H87.7716L87.7731 53.955ZM106.396 47.17C106.889 47.1477 107.38 47.2449 107.828 47.4534C108.275 47.6619 108.665 47.9755 108.966 48.3674C109.629 49.3263 109.955 50.4792 109.889 51.6437V62.5302H108.619V51.8185C108.683 50.8897 108.467 49.9631 108.001 49.1576C107.806 48.8689 107.541 48.6349 107.23 48.4782C106.919 48.3215 106.573 48.2472 106.226 48.2626C104.763 48.2626 103.435 49.3501 102.241 51.5252V62.5302H100.94V51.8185C101.003 50.8892 100.786 49.9626 100.317 49.1576C100.123 48.8689 99.8577 48.6349 99.5469 48.4782C99.2361 48.3215 98.8903 48.2472 98.5426 48.2626C97.0797 48.2626 95.7627 49.3501 94.5916 51.5252V62.5302H93.2923V47.4587H94.4183L94.5338 50.0861C95.0066 49.2518 95.6441 48.5223 96.4075 47.9419C97.0816 47.4348 97.9026 47.1612 98.7462 47.1624C99.5553 47.1339 100.343 47.4242 100.94 47.9708C101.555 48.5798 101.959 49.3686 102.095 50.2229C102.585 49.3599 103.237 48.6002 104.016 47.986C104.696 47.455 105.534 47.1677 106.396 47.17V47.17ZM123.517 59.5563C123.487 60.0983 123.575 60.6404 123.777 61.1443C123.961 61.5009 124.269 61.7781 124.643 61.9239L124.355 62.8478C123.806 62.7353 123.312 62.4401 122.954 62.0105C122.597 61.4913 122.402 60.8788 122.391 60.2493C122.004 61.0409 121.399 61.7058 120.647 62.166C119.896 62.6262 119.028 62.8627 118.147 62.8478C117.574 62.8774 117.001 62.7829 116.468 62.5708C115.935 62.3586 115.454 62.0337 115.058 61.6184C114.275 60.7113 113.871 59.5374 113.932 58.3406C113.894 57.6696 114.011 56.9988 114.275 56.3805C114.538 55.7622 114.941 55.213 115.451 54.7756C116.66 53.8753 118.148 53.4308 119.653 53.5204H122.223V51.7881C122.298 50.8481 122.037 49.912 121.486 49.147C121.17 48.8382 120.79 48.6019 120.374 48.4547C119.957 48.3075 119.514 48.2528 119.074 48.2945C117.779 48.3384 116.504 48.6326 115.321 49.1607L114.945 48.1501C116.281 47.5456 117.724 47.212 119.189 47.1685C122.077 47.1685 123.52 48.6795 123.52 51.7015L123.517 59.5563ZM118.291 61.7506C119.164 61.7335 120.01 61.4468 120.713 60.9298C121.416 60.4129 121.942 59.691 122.218 58.8634V54.5325H119.787C116.803 54.5325 115.311 55.7933 115.311 58.3148C115.252 59.2307 115.535 60.1362 116.105 60.8556C116.381 61.1573 116.72 61.3941 117.098 61.5489C117.477 61.7036 117.885 61.7725 118.293 61.7506H118.291ZM134.98 61.9239C134.174 62.5326 133.189 62.8575 132.179 62.8478C131.737 62.8724 131.295 62.8027 130.882 62.6435C130.468 62.4842 130.094 62.2389 129.783 61.9239C129.165 61.1932 128.854 60.2513 128.916 59.2965V48.5498H126.695V47.4587H128.918V43.7919L130.217 43.6399V47.4587H133.797L133.624 48.5559H130.217V59.2387C130.217 60.8748 130.91 61.6929 132.296 61.6929C133.058 61.6837 133.8 61.453 134.433 61.0288L134.98 61.9239ZM138.849 47.4587V62.5302H137.548V47.4587H138.849ZM138.156 41.0764C138.288 41.0699 138.42 41.0906 138.543 41.1373C138.667 41.1839 138.78 41.2555 138.874 41.3476C138.969 41.4396 139.044 41.5502 139.094 41.6725C139.144 41.7947 139.169 41.9259 139.166 42.058C139.171 42.1883 139.149 42.3182 139.102 42.4397C139.054 42.5612 138.983 42.6718 138.891 42.7646C138.794 42.858 138.678 42.9305 138.552 42.9778C138.425 43.025 138.291 43.0461 138.156 43.0397C138.024 43.0442 137.893 43.0208 137.771 42.971C137.65 42.9213 137.54 42.8463 137.449 42.751C137.273 42.5633 137.175 42.3155 137.175 42.058C137.175 41.8005 137.273 41.5527 137.449 41.3651C137.54 41.2701 137.65 41.1953 137.772 41.1458C137.893 41.0963 138.024 41.0732 138.156 41.0779V41.0764ZM148.954 47.1685C149.642 47.1494 150.327 47.2701 150.967 47.5232C151.607 47.7763 152.19 48.1565 152.679 48.641L152.015 49.5071C151.598 49.1316 151.125 48.8239 150.613 48.5954C150.096 48.3839 149.54 48.2805 148.981 48.2915C148.348 48.2762 147.72 48.4233 147.159 48.7188C146.598 49.0143 146.122 49.4484 145.777 49.9797C144.881 51.5216 144.469 53.2964 144.593 55.075C144.467 56.8158 144.876 58.5534 145.763 60.0563C146.114 60.5749 146.591 60.9963 147.149 61.2813C147.707 61.5664 148.328 61.7058 148.954 61.6868C150.133 61.67 151.264 61.2175 152.13 60.4164L152.794 61.2248C152.292 61.7335 151.694 62.1381 151.035 62.4156C150.376 62.693 149.669 62.8378 148.954 62.8417C148.146 62.8727 147.343 62.7087 146.612 62.3635C145.881 62.0183 145.244 61.5021 144.755 60.8586C143.617 59.1571 143.074 57.1266 143.211 55.0841C143.086 53.0217 143.632 50.9743 144.769 49.2488C145.243 48.5853 145.872 48.0486 146.602 47.686C147.333 47.3235 148.141 47.1463 148.956 47.17L148.954 47.1685ZM159.439 47.1685C160.214 47.1587 160.983 47.2959 161.707 47.5727C162.44 47.8726 163.118 48.2921 163.714 48.8142L163.05 49.6515C162.532 49.2183 161.953 48.8635 161.331 48.5984C160.747 48.3704 160.125 48.2574 159.499 48.2656C158.668 48.2282 157.852 48.4951 157.204 49.0163C156.914 49.2645 156.684 49.5754 156.531 49.9255C156.379 50.2757 156.308 50.6559 156.324 51.0374C156.311 51.3691 156.372 51.6996 156.504 52.0044C156.635 52.3093 156.833 52.5807 157.084 52.7986C157.886 53.3863 158.792 53.8173 159.754 54.069C160.977 54.3879 162.113 54.9802 163.074 55.8014C163.415 56.1686 163.677 56.6009 163.846 57.0724C164.014 57.5438 164.086 58.0445 164.056 58.5443C164.078 59.1311 163.969 59.7154 163.737 60.2548C163.505 60.7942 163.155 61.2751 162.714 61.6625C161.762 62.4723 160.541 62.8948 159.292 62.8463C158.371 62.8653 157.457 62.693 156.607 62.3402C155.818 61.9908 155.095 61.5075 154.47 60.9118L155.221 60.1034C155.777 60.6105 156.41 61.025 157.098 61.3312C157.786 61.6049 158.522 61.7377 159.263 61.7218C160.168 61.7606 161.057 61.4678 161.761 60.8981C162.087 60.6087 162.344 60.2492 162.511 59.8465C162.679 59.4438 162.753 59.0085 162.728 58.5731C162.749 58.0355 162.64 57.5007 162.41 57.014C162.155 56.5672 161.773 56.2057 161.313 55.9746C160.591 55.6014 159.837 55.2922 159.061 55.0507C157.911 54.7575 156.845 54.2043 155.943 53.4338C155.634 53.1183 155.392 52.743 155.233 52.331C155.075 51.9189 155.001 51.4787 155.019 51.0374C155.008 50.5109 155.114 49.9887 155.332 49.509C155.549 49.0293 155.871 48.6044 156.274 48.2656C157.153 47.5205 158.278 47.1298 159.43 47.17L159.439 47.1685ZM25.4099 69.8456C25.9712 69.8163 26.5324 69.9053 27.0571 70.1067C27.5818 70.3082 28.0583 70.6177 28.4557 71.0151C28.8532 71.4126 29.1626 71.8891 29.3641 72.4138C29.5656 72.9385 29.6546 73.4997 29.6253 74.061C29.6468 75.0953 29.2987 76.1034 28.6436 76.9042C27.7507 77.9018 26.7079 78.7544 25.5527 79.4313L31.0689 85.2346C31.8469 83.4042 32.437 81.4995 32.8301 79.5498L34.0458 79.8674C33.6111 82.0074 32.8824 84.077 31.8804 86.0172L35.1977 89.4272L34.2145 90.2007L31.1829 87.0247C30.515 87.9677 29.6657 88.768 28.6847 89.3786C27.6697 89.9532 26.5164 90.2381 25.3506 90.2022C24.3992 90.216 23.4592 89.9931 22.6153 89.5534C21.8154 89.1323 21.1487 88.4966 20.69 87.7177C20.1892 86.805 19.9461 85.7733 19.9868 84.7331C20.0275 83.6928 20.3504 82.6832 20.921 81.8125C21.707 80.7887 22.6699 79.9138 23.7642 79.2292C22.9783 78.4572 22.2857 77.5958 21.7005 76.6625C21.291 75.9107 21.0866 75.0643 21.1079 74.2084C21.0845 73.6313 21.1772 73.0553 21.3806 72.5147C21.5839 71.9741 21.8937 71.4799 22.2917 71.0613C22.6989 70.6538 23.1864 70.3353 23.7232 70.1261C24.2599 69.9168 24.8343 69.8213 25.4099 69.8456V69.8456ZM25.4099 70.9093C24.9996 70.8902 24.5901 70.962 24.2107 71.1196C23.8314 71.2772 23.4915 71.5168 23.2156 71.8211C22.6592 72.4758 22.3704 73.3165 22.4072 74.1749C22.3967 74.8596 22.5499 75.5369 22.8539 76.1504C23.392 77.057 24.0369 77.8957 24.7747 78.6487C25.7954 78.0857 26.7132 77.3535 27.4887 76.4832C28.0374 75.817 28.3339 74.9787 28.326 74.1157C28.3557 73.685 28.2995 73.2527 28.1607 72.844C28.0219 72.4352 27.8033 72.058 27.5176 71.7344C27.2418 71.4598 26.9122 71.2451 26.5495 71.1039C26.1868 70.9627 25.7988 70.898 25.4099 70.9139V70.9093ZM24.5149 79.9753C23.5704 80.5616 22.7509 81.3284 22.1032 82.2319C21.5666 83.0446 21.2895 84.0011 21.3085 84.9748C21.2845 85.5234 21.3748 86.0711 21.5736 86.583C21.7724 87.0949 22.0754 87.56 22.4634 87.9487C22.8538 88.324 23.3157 88.6171 23.8216 88.8105C24.3275 89.004 24.8671 89.0938 25.4084 89.0747C26.3905 89.1039 27.3612 88.8575 28.2105 88.3635C29.0676 87.8067 29.804 87.0832 30.376 86.2361L24.5149 79.9753ZM59.1361 74.5229C59.6292 74.5006 60.1204 74.5979 60.5678 74.8064C61.0153 75.0149 61.4057 75.3284 61.7057 75.7204C62.3697 76.6793 62.6948 77.8322 62.6297 78.9967V89.8831H61.3593V79.1714C61.4212 78.2439 61.2048 77.3189 60.7377 76.5151C60.5433 76.2264 60.278 75.9924 59.9672 75.8357C59.6564 75.679 59.3106 75.6047 58.9628 75.6201C57.5 75.6201 56.1718 76.7076 54.9784 78.8827V89.8831H53.6792V79.1714C53.742 78.2423 53.5256 77.3157 53.0576 76.5106C52.8631 76.2216 52.5976 75.9875 52.2865 75.8308C51.9754 75.674 51.6292 75.5999 51.2812 75.6155C49.8184 75.6155 48.5014 76.7031 47.3302 78.8781V89.8831H46.031V74.8117H47.157L47.2725 77.4391C47.7444 76.605 48.3808 75.8755 49.1431 75.2949C49.8173 74.7878 50.6383 74.5141 51.4818 74.5153C52.2909 74.4869 53.0789 74.7772 53.6761 75.3238C54.2905 75.9327 54.695 76.7215 54.831 77.5758C55.3203 76.7128 55.9727 75.9531 56.7518 75.339C57.4324 74.807 58.2723 74.5196 59.1361 74.5229V74.5229ZM77.4701 81.7411C77.4701 82.1463 77.4509 82.5409 77.4124 82.9248H68.199C68.1357 84.5701 68.5849 86.1944 69.4846 87.5733C69.848 88.0472 70.3189 88.4279 70.8585 88.684C71.398 88.94 71.9907 89.064 72.5876 89.0458C73.2446 89.0598 73.8977 88.942 74.5084 88.6994C75.1439 88.4133 75.7329 88.0338 76.256 87.5733L76.9201 88.3818C76.32 88.9423 75.6321 89.4007 74.8838 89.7388C74.1495 90.0509 73.3581 90.2062 72.5603 90.1946C71.752 90.2254 70.9484 90.0589 70.219 89.7094C69.4896 89.3599 68.8562 88.838 68.3738 88.1888C67.2517 86.4969 66.7143 84.4843 66.8435 82.4583C66.7244 80.4069 67.2327 78.3678 68.3008 76.6124C68.7279 75.9528 69.3172 75.414 70.0121 75.0473C70.7071 74.6807 71.4845 74.4985 72.27 74.5184C73.0225 74.4785 73.7726 74.6312 74.4496 74.962C75.1265 75.2928 75.708 75.7907 76.139 76.4088C77.1161 78.0087 77.5797 79.8697 77.4671 81.7411H77.4701ZM76.1709 81.308C76.2565 79.8504 75.9261 78.3985 75.2181 77.1215C74.9066 76.6391 74.4723 76.2485 73.9597 75.9897C73.4472 75.7309 72.875 75.6133 72.302 75.649C71.7337 75.6389 71.172 75.771 70.6678 76.0332C70.1636 76.2954 69.7328 76.6794 69.4147 77.1503C68.5624 78.5789 68.1402 80.223 68.199 81.8854H76.1678L76.1709 81.308ZM86.3051 74.5229C86.9933 74.5039 87.6781 74.6245 88.3183 74.8776C88.9584 75.1307 89.5406 75.511 90.0297 75.9954L89.3656 76.8616C88.9494 76.486 88.4766 76.1783 87.9646 75.9498C87.4474 75.7386 86.8926 75.6352 86.334 75.6459C85.7002 75.6306 85.073 75.7777 84.512 76.0732C83.9511 76.3687 83.475 76.8028 83.1292 77.3342C82.2337 78.8765 81.8213 80.6519 81.9454 82.431C81.8195 84.1716 82.2272 85.9092 83.114 87.4122C83.4653 87.9311 83.942 88.3528 84.4999 88.6381C85.0578 88.9235 85.6788 89.0632 86.3051 89.0443C87.4843 89.0275 88.6156 88.575 89.4811 87.7739L90.1452 88.5823C89.6428 89.091 89.0451 89.4956 88.3861 89.7731C87.7272 90.0505 87.0201 90.1953 86.3051 90.1992C85.4963 90.2304 84.6919 90.066 83.9602 89.72C83.2284 89.374 82.591 88.8565 82.1019 88.2116C80.9654 86.5094 80.4241 84.479 80.5625 82.437C80.4381 80.3755 80.9851 78.3292 82.1217 76.6048C82.5944 75.9416 83.2229 75.4048 83.9519 75.0418C84.6809 74.6787 85.488 74.5006 86.3021 74.5229H86.3051ZM99.471 74.5229C99.9908 74.4929 100.51 74.5843 100.989 74.7897C101.467 74.9952 101.891 75.3091 102.228 75.7067C102.923 76.6578 103.266 77.8218 103.196 78.9982V89.8831H101.896V79.1714C101.896 76.8039 101.021 75.6201 99.2689 75.6201C98.3885 75.618 97.5352 75.9245 96.8573 76.4863C96.0422 77.1745 95.3607 78.007 94.8469 78.9419V89.8831H93.5476V68.6618L94.8469 68.4886V77.4968C95.379 76.6397 96.0702 75.8923 96.8831 75.2949C97.6423 74.7725 98.5467 74.5024 99.468 74.5229H99.471ZM116.82 86.9093C116.79 87.4512 116.878 87.9933 117.08 88.4972C117.264 88.8539 117.572 89.131 117.946 89.2768L117.658 90.2007C117.11 90.0878 116.617 89.7927 116.258 89.3634C115.901 88.8445 115.705 88.2319 115.694 87.6022C115.307 88.3939 114.702 89.0587 113.95 89.5189C113.199 89.9791 112.331 90.2156 111.45 90.2007C110.877 90.2308 110.305 90.1367 109.771 89.9251C109.238 89.7134 108.757 89.3892 108.361 88.9744C107.578 88.0673 107.174 86.8934 107.235 85.6966C107.197 85.0255 107.314 84.3548 107.578 83.7365C107.841 83.1182 108.244 82.569 108.754 82.1316C109.963 81.2316 111.45 80.7871 112.955 80.8764H115.514V79.1441C115.59 78.2043 115.329 77.2682 114.778 76.503C114.462 76.1942 114.083 75.9579 113.666 75.8107C113.25 75.6634 112.806 75.6088 112.366 75.6505C111.071 75.6944 109.797 75.9886 108.613 76.5167L108.238 75.5061C109.574 74.9016 111.016 74.5679 112.482 74.5244C115.369 74.5244 116.813 76.0354 116.813 79.0574L116.82 86.9093ZM111.594 89.1036C112.467 89.0864 113.313 88.7997 114.016 88.2828C114.719 87.7658 115.245 87.044 115.521 86.2163V81.8854H113.09C110.106 81.8854 108.615 83.1462 108.615 85.6677C108.555 86.5839 108.839 87.4893 109.409 88.2085C109.685 88.5098 110.024 88.7464 110.401 88.9011C110.779 89.0559 111.187 89.125 111.594 89.1036ZM128.196 74.5229C128.717 74.4895 129.239 74.5777 129.72 74.7805C130.201 74.9833 130.628 75.2952 130.968 75.6915C131.659 76.6502 131.995 77.8189 131.921 78.9982V89.8831H130.621V79.1714C130.621 76.8039 129.746 75.6201 127.994 75.6201C127.114 75.618 126.26 75.9245 125.582 76.4863C124.769 77.1745 124.089 78.0064 123.577 78.9404V89.8831H122.277V74.8117H123.403L123.519 77.5257C123.958 76.652 124.624 75.9124 125.447 75.3842C126.269 74.8559 127.219 74.5585 128.196 74.5229V74.5229ZM138.561 74.8117V89.8831H137.262V74.8117H138.561ZM137.868 68.4293C138 68.4228 138.132 68.4435 138.256 68.4902C138.38 68.5369 138.492 68.6084 138.587 68.7005C138.682 68.7926 138.757 68.9032 138.807 69.0254C138.857 69.1476 138.882 69.2789 138.879 69.411C138.884 69.5413 138.862 69.6712 138.814 69.7927C138.767 69.9142 138.696 70.0247 138.604 70.1176C138.506 70.2109 138.391 70.2834 138.264 70.3307C138.138 70.378 138.003 70.3991 137.868 70.3926C137.737 70.3971 137.606 70.3737 137.484 70.324C137.362 70.2742 137.253 70.1992 137.162 70.1039C136.986 69.9162 136.887 69.6684 136.887 69.411C136.887 69.1535 136.986 68.9057 137.162 68.718C137.253 68.623 137.363 68.5483 137.484 68.4988C137.606 68.4493 137.737 68.4261 137.868 68.4308V68.4293ZM148.667 74.5214C149.355 74.5024 150.04 74.623 150.68 74.8761C151.32 75.1292 151.902 75.5095 152.391 75.9939L151.727 76.8601C151.311 76.4845 150.838 76.1768 150.326 75.9483C149.809 75.7369 149.253 75.6334 148.694 75.6444C148.06 75.6291 147.433 75.7762 146.872 76.0717C146.311 76.3672 145.835 76.8013 145.489 77.3327C144.594 78.875 144.181 80.6504 144.306 82.4294C144.18 84.1702 144.588 85.9079 145.476 87.4107C145.827 87.9296 146.304 88.3513 146.862 88.6366C147.42 88.922 148.04 89.0617 148.667 89.0428C149.846 89.0259 150.977 88.5734 151.843 87.7724L152.507 88.5808C152.004 89.0895 151.407 89.4941 150.748 89.7716C150.089 90.049 149.382 90.1938 148.667 90.1977C147.858 90.2288 147.054 90.0646 146.323 89.7188C145.591 89.3731 144.954 88.856 144.465 88.2116C143.327 86.51 142.784 84.4796 142.921 82.437C142.797 80.3755 143.344 78.3292 144.48 76.6048C144.954 75.9407 145.583 75.4034 146.313 75.0403C147.043 74.6772 147.852 74.4995 148.667 74.5229V74.5214ZM159.152 74.5214C159.927 74.5117 160.696 74.6488 161.419 74.9256C162.153 75.2255 162.831 75.645 163.427 76.1671L162.763 77.0044C162.245 76.5707 161.665 76.2154 161.044 75.9498C160.46 75.7219 159.838 75.6089 159.211 75.617C158.381 75.5796 157.565 75.8466 156.917 76.3677C156.627 76.6159 156.397 76.9268 156.244 77.2769C156.092 77.6271 156.021 78.0073 156.037 78.3888C156.024 78.7205 156.085 79.051 156.217 79.3558C156.348 79.6607 156.546 79.9321 156.797 80.15C157.599 80.7377 158.505 81.1687 159.467 81.4204C160.69 81.7393 161.826 82.3316 162.787 83.1528C163.126 83.5191 163.388 83.9502 163.557 84.4202C163.726 84.8903 163.798 85.3895 163.769 85.8881C163.791 86.4749 163.682 87.0592 163.45 87.5986C163.218 88.138 162.868 88.6189 162.427 89.0063C161.475 89.8161 160.254 90.2386 159.005 90.1901C158.084 90.2091 157.17 90.0368 156.32 89.6841C155.53 89.3346 154.808 88.8513 154.183 88.2556L154.934 87.4472C155.49 87.9538 156.123 88.3678 156.81 88.6735C157.499 88.9472 158.235 89.08 158.976 89.0641C159.881 89.1029 160.769 88.8101 161.474 88.2404C161.798 87.9527 162.053 87.5958 162.22 87.1962C162.387 86.7967 162.462 86.3646 162.439 85.9321C162.46 85.3945 162.351 84.8597 162.121 84.373C161.866 83.9262 161.484 83.5647 161.024 83.3336C160.302 82.9604 159.548 82.6512 158.772 82.4097C157.623 82.1165 156.556 81.5633 155.654 80.7928C155.345 80.4774 155.104 80.1021 154.945 79.69C154.786 79.2779 154.713 78.8377 154.73 78.3964C154.719 77.87 154.826 77.3477 155.043 76.868C155.26 76.3883 155.582 75.9635 155.985 75.6246C156.865 74.8759 157.993 74.4829 159.148 74.5229L159.152 74.5214Z" fill="white"></path> </svg> 